<svg xmlns="http://www.w3.org/2000/svg" viewBox="0 0 512 512">
  <defs>
    <linearGradient id="bg" x1="0" x2="0" y1="0" y2="1">
      <stop offset="0%" stop-color="#171b26"/>
      <stop offset="100%" stop-color="#05070d"/>
    </linearGradient>
    <linearGradient id="glow" x1="0" x2="1" y1="0" y2="1">
      <stop offset="0%" stop-color="#f6d18b"/>
      <stop offset="100%" stop-color="#fff2bf"/>
    </linearGradient>
  </defs>
  <rect width="512" height="512" rx="108" fill="url(#bg)"/>
  <rect x="96" y="332" width="320" height="84" rx="20" fill="#253647"/>
  <rect x="128" y="232" width="70" height="100" fill="#1a1d25"/>
  <rect x="186" y="170" width="92" height="74" rx="16" fill="#efd3c0"/>
  <rect x="182" y="152" width="100" height="28" rx="10" fill="#d7bf59"/>
  <rect x="214" y="232" width="104" height="100" rx="16" fill="#111418"/>
  <rect x="318" y="244" width="64" height="88" rx="16" fill="#1a1d25"/>
  <circle cx="218" cy="206" r="18" fill="none" stroke="#101217" stroke-width="10"/>
  <circle cx="262" cy="206" r="18" fill="none" stroke="#101217" stroke-width="10"/>
  <rect x="233" y="202" width="14" height="8" rx="4" fill="#101217"/>
  <path d="M110 116c88-72 222-72 302 0" fill="none" stroke="url(#glow)" stroke-width="24" stroke-linecap="round" opacity="0.9"/>
  <circle cx="382" cy="132" r="18" fill="url(#glow)" opacity="0.92"/>
</svg>
